<svg width="50" height="44" viewBox="0 0 50 44" fill="none" xmlns="http://www.w3.org/2000/svg">
<path d="M46.12 20.328L36.792 4.224C36.264 3.256 35.12 2.64 34.064 2.64H15.496C14.44 2.64 13.296 3.256 12.68 4.224L3.44 20.328C3.176 20.768 3 21.384 3 21.912C3 22.528 3.176 23.056 3.44 23.496L12.68 39.6C13.208 40.568 14.352 41.184 15.496 41.184H34.064C35.12 41.184 36.264 40.568 36.88 39.6L46.12 23.496C46.384 23.056 46.56 22.44 46.56 21.912C46.472 21.384 46.384 20.768 46.12 20.328ZM42.6 21.912C42.6 22.176 42.512 22.44 42.424 22.616L34.24 36.784C33.976 37.224 33.448 37.488 32.92 37.488H16.552C16.024 37.488 15.496 37.224 15.232 36.784L7.048 22.704C6.96 22.528 6.872 22.264 6.872 22C6.872 21.736 6.96 21.472 7.048 21.296L15.232 7.04C15.496 6.6 16.024 6.336 16.552 6.336H32.92C33.448 6.336 33.976 6.6 34.24 7.04L42.424 21.208C42.512 21.384 42.6 21.648 42.6 21.912Z" fill="black"/>
<path d="M20.3526 14.1607C17.1276 17.4107 17.262 27.1607 20.487 29.7857C23.5776 32.4107 26.2651 32.4107 29.6245 29.9107C32.0432 28.0357 32.0432 28.0357 29.087 28.7857C27.3401 29.2857 25.1901 28.9107 24.1151 28.1607C22.0995 26.5357 21.4276 18.7857 22.9057 15.1607C24.1151 12.1607 27.4745 12.7857 27.4745 15.9107C27.4745 18.0357 27.8776 18.2857 29.087 17.1607C30.162 16.1607 30.162 15.2857 28.8182 13.7857C26.5339 11.2857 23.0401 11.4107 20.3526 14.1607Z" fill="black"/>
</svg>
